<?xml version="1.0" encoding="UTF-8" standalone="no"?>
<svg
   xmlns:dc="http://purl.org/dc/elements/1.1/"
   xmlns:cc="http://creativecommons.org/ns#"
   xmlns:rdf="http://www.w3.org/1999/02/22-rdf-syntax-ns#"
   xmlns:svg="http://www.w3.org/2000/svg"
   xmlns="http://www.w3.org/2000/svg"
   xmlns:sodipodi="http://sodipodi.sourceforge.net/DTD/sodipodi-0.dtd"
   xmlns:inkscape="http://www.inkscape.org/namespaces/inkscape"
   viewBox="0 0 989.99999 165.33333"
   height="165.33333"
   width="990"
   xml:space="preserve"
   id="svg2"
   version="1.1"
   sodipodi:docname="SVGLogo-OliveOffice.svg"
   inkscape:version="1.0 (4035a4fb49, 2020-05-01)"><sodipodi:namedview
     inkscape:document-rotation="0"
     pagecolor="#ffffff"
     bordercolor="#666666"
     borderopacity="1"
     objecttolerance="10"
     gridtolerance="10"
     guidetolerance="10"
     inkscape:pageopacity="0"
     inkscape:pageshadow="2"
     inkscape:window-width="1920"
     inkscape:window-height="1017"
     id="namedview22"
     showgrid="false"
     inkscape:zoom="1.1175426"
     inkscape:cx="487.04245"
     inkscape:cy="82.666664"
     inkscape:window-x="-8"
     inkscape:window-y="-8"
     inkscape:window-maximized="1"
     inkscape:current-layer="g12" /><metadata
     id="metadata8"><rdf:RDF><cc:Work
         rdf:about=""><dc:format>image/svg+xml</dc:format><dc:type
           rdf:resource="http://purl.org/dc/dcmitype/StillImage" /><dc:title></dc:title></cc:Work></rdf:RDF></metadata><defs
     id="defs6"><rect
       x="3496.511"
       y="283.66058"
       width="0"
       height="496.6254"
       id="rect44" /><rect
       x="2533.4607"
       y="766.86365"
       width="1023.451"
       height="573.80365"
       id="rect26" /></defs><g
     transform="matrix(1.3333333,0,0,-1.3333333,0,165.33333)"
     id="g10"><g
       transform="scale(0.1)"
       id="g12"><path
         id="path14"
         style="fill:#e65c23;fill-opacity:1;fill-rule:evenodd;stroke:none"
         d="m 511.02,14.9609 c 40.07,-5.55074 88.902,-8.16012 146.48,-7.73043 57.578,0.35156 120.469,5.53903 188.789,15.42973 68.672,9.5703 139.57,25.4609 212.621,47.6484 73.04,21.8828 145.31,51.6404 216.75,89.3394 71.88,37.731 139.54,85 203.09,141.762 L 1348.36,444.961 C 1310.2,396.879 1264.57,352.422 1211.37,311.52 1158.55,270.621 1101.56,233.91 1040.43,201.332 979.301,168.832 916.949,141.211 853.441,118.551 789.879,96.332 728.551,79.8398 669.41,69.1406 610.23,58.0508 556.449,53.6719 508.012,56.0195 L 511.02,14.9609 M 0,417.539 C 57.6211,463.59 106.84,515 147.73,571.801 c 40.469,56.75 74.258,115.308 101.25,175.66 26.61,59.961 47.821,118.129 63.68,174.488 15.891,56.371 27.57,107.001 35.192,151.841 7.539,44.92 12.269,80.66 14.257,107.23 2.379,26.6 3.36,40.07 2.969,40.5 L 992.191,1240 c 18.669,-41.33 26.599,-89.34 23.829,-144.14 -2.39,-55.2 -13.09,-113.95 -32.149,-176.29 C 964.77,857.23 939.801,793.91 908.828,729.609 877.852,665.309 843.281,603.121 805.199,543.199 767.461,483.238 728.359,428.441 687.852,378.828 647.809,329.18 608.871,287.699 571.172,254.379 c -38.16,-33.789 -72.5,-56.41 -103.051,-67.93 L 480.621,14.9609 25.6211,306.762 0,417.539" /><path
         id="path16"
         style="fill:#faae17;fill-opacity:1;fill-rule:evenodd;stroke:none"
         d="m 506.211,77.4609 c 48.051,-0.7812 102.66,5.5508 163.789,19.0977 61.172,13.4804 125.27,34.9214 192.379,64.3004 66.68,28.981 132.973,66.481 198.911,112.539 65.9,45.704 127.62,100.274 185.19,163.793 57.19,63.118 107.04,135.821 149.5,217.969 L 1244.14,796.328 C 1213.95,706.211 1175.04,622.422 1127.38,545 1079.34,467.969 1023.55,399.262 960.039,338.91 896.52,278.551 826.449,228.75 749.84,189.41 673.199,150.512 591.211,124.34 503.828,110.82 l 2.383,-33.3591" /><path
         id="path18"
         style="fill:#00b3e6;fill-opacity:1;fill-rule:evenodd;stroke:none"
         d="m 502.699,134.648 c 50.352,5.551 104.211,21.832 161.321,48.832 57.191,27.032 114.57,64.329 172.152,111.989 57.93,47.23 113.168,105 165.548,173.32 52.81,67.852 100.27,145.66 142.34,233.402 42.11,88.161 76.02,186.008 101.84,293.629 l -160.78,129.8 c 2.77,-49.64 -2.82,-104.21 -16.68,-163.741 -13.91,-60 -34.38,-121.918 -61.37,-185.859 C 979.691,712.539 947.34,649.609 910,587.27 872.301,524.922 831.211,466.172 786.719,410.98 741.879,356.172 695.199,307.73 646.762,265.66 598.32,223.98 549.301,191.602 499.691,168.59 l 3.008,-33.942" /><path
         id="path20"
         style="fill:#faae17;fill-opacity:1;fill-rule:evenodd;stroke:none"
         d="M 1244.14,796.328 1395.98,655.16 c -9.53,-18.281 -19.5,-36.14 -29.77,-53.601 -77.85,-29.758 -160.78,-53.59 -248.94,-71.481 52.42,81.402 94.64,170.152 126.87,266.25" /><path
         id="path22"
         style="fill:#42c7f5;fill-opacity:1;fill-rule:evenodd;stroke:none"
         d="m 1036.25,515.82 c 45.27,64.301 85.78,136.559 121.52,216.758 36.1,79.801 65.51,167.543 88.13,263.242 l -161.41,129.8 c 2.39,-43.24 -1.56,-90.54 -11.91,-141.71 -9.92,-51.211 -25.39,-104.461 -46.45,-159.609 C 1005.12,769.102 979.691,713.91 949.879,658.75 920.551,603.121 887.77,549.531 851.641,497.93 c 63.129,2.808 124.687,8.75 184.609,17.89" /><path
         id="path24"
         style="fill:#87c23f;fill-opacity:1;fill-rule:evenodd;stroke:none"
         d="m 365.699,1221.52 c 0,-0.43 -1.008,-13.12 -2.969,-38.08 -1.992,-24.61 -6.359,-58.21 -13.121,-100.71 -7.187,-42.46 -17.89,-90.308 -32.148,-143.468 C 303.16,885.66 283.91,829.879 259.648,771.879 235.469,713.91 204.922,656.91 167.969,600.941 c 87.73,-33.711 182.07,-59.73 282.89,-78.011 100.821,-17.852 206.051,-26.989 315.621,-27.34 2.782,0 5.36,0 7.739,0 41.679,61.91 80.191,126.832 115.551,194.68 34.96,68.32 63.71,136.21 86.359,203.71 22.191,67.469 35.511,131.02 39.891,190.59 3.98,59.53 -3.79,111.33 -23.25,155.43 l -627.071,-18.48" /><path
         id="path26"
         style="fill:#88c240;fill-opacity:1;fill-rule:nonzero;stroke:none;stroke-width:2.80003"
         d="m 1905.6263,994.3598 c 65.2967,0 123.0613,-11.3765 173.266,-34.138 50.0925,-22.54022 92.429,-53.25381 126.8695,-92.31147 34.3564,-38.84205 60.3687,-83.89182 77.8689,-135.19123 17.5003,-51.07821 26.2643,-104.55324 26.2643,-160.55391 0,-55.46306 -8.652,-108.94929 -25.8163,-160.58471 -16.9402,-51.40581 -42.8685,-97.01835 -77.8689,-136.91883 -34.7765,-39.70167 -77.8689,-71.54084 -129.5016,-95.39713 -51.4086,-23.60428 -111.3573,-35.41482 -179.8181,-35.41482 -67.1448,0 -125.4415,11.25333 -175.0021,33.676 -49.3366,22.73907 -90.3571,53.37703 -122.9495,91.8775 -32.7043,38.50045 -57.2046,82.90618 -73.5008,133.44957 -16.4082,50.72822 -24.5003,104.21165 -24.5003,160.55392 0,59.5007 8.8761,115.27177 26.6843,167.57359 18.0602,52.50062 44.2965,98.088 78.7649,136.93005 34.3565,39.05766 76.665,69.77125 126.8695,92.31147 50.0927,22.7615 107.6333,34.138 172.3702,34.138 z m -6.5521,-767.83352 c 54.4605,0 101.1651,8.7389 140.0016,26.23911 39.0604,17.71862 70.8688,42.1097 95.3691,73.08647 24.7243,30.82277 43.0085,67.0244 54.6847,108.50129 11.9282,41.6617 17.9482,86.28583 17.9482,133.86399 0,50.96061 -6.132,97.55317 -18.3682,139.55366 -12.0402,42.0005 -30.4084,78.00893 -55.1326,108.08692 -24.8364,29.95755 -56.4487,53.36301 -94.9492,70.00078 -38.5005,16.82265 -84.197,25.36276 -136.9217,25.36276 -53.7046,0 -99.3171,-8.20135 -136.9495,-24.50036 -37.6325,-16.40537 -68.2369,-39.36284 -91.8691,-69.1356 -23.4083,-29.72794 -40.5725,-65.17636 -51.6327,-106.31445 -10.8081,-40.90569 -16.1841,-85.95823 -16.1841,-135.18841 0,-115.80658 25.0602,-203.00241 75.2649,-261.60711 50.4006,-58.6243 123.3694,-87.94905 218.7386,-87.94905 z m 664.6718,-67.814 h -87.9165 v 929.69782 h 87.9165 z" /><path
         id="path28"
         style="fill:#88c240;fill-opacity:1;fill-rule:nonzero;stroke:none;stroke-width:2.80003"
         d="M 2855.6775,158.71228 H 2767.75 v 577.95487 h 87.9275 z m -106.7373,789.27057 c 0,16.60415 5.9081,31.58715 17.9202,45.05255 12.2642,13.3338 27.2444,20.1351 45.0806,20.1351 16.6042,0 31.6124,-6.8013 45.0525,-20.1351 13.3562,-13.4654 20.1323,-28.4484 20.1323,-45.05255 0,-17.83902 -6.7761,-32.8136 -20.1323,-45.07208 -13.4401,-12.04297 -28.4483,-17.9287 -45.0525,-17.9287 -17.8362,0 -32.8164,5.88573 -45.0806,17.9287 -12.0121,12.25848 -17.9202,27.23306 -17.9202,45.07208 z" /><path
         id="path30"
         style="fill:#88c240;fill-opacity:1;fill-rule:nonzero;stroke:none;stroke-width:2.80003"
         d="m 3337.5912,158.71228 h -112.0013 l -262.5031,577.95487 h 95.3692 l 224.8986,-494.81628 225.2906,494.81628 h 91.4492 z" /><path
         id="path32"
         style="fill:#88c240;fill-opacity:1;fill-rule:nonzero;stroke:none;stroke-width:2.80003"
         d="m 3959.1706,755.48057 c 73.5009,0 130.3976,-18.70142 170.6341,-56.00066 40.2644,-37.10044 60.3687,-89.60107 60.3687,-157.50187 0,-14.33898 -0.868,-28.77595 -2.6041,-43.31372 -1.5399,-14.67778 -4.396,-25.2871 -8.7641,-31.94838 h -423.505 v -12.68695 c 0,-31.82798 4.172,-62.46594 12.6842,-91.86629 8.4281,-29.20155 21.0002,-55.13546 37.6324,-77.89693 16.8562,-22.50947 38.0524,-40.45768 63.4488,-53.79144 25.5922,-13.46256 56.0846,-20.12384 91.421,-20.12384 19.7963,0 39.3685,2.17562 58.6327,6.55208 19.4602,4.58085 38.0525,10.50012 55.5527,17.50021 17.5002,7.21848 33.7964,15.08098 49.0006,23.62387 15.0921,8.43371 28.5604,16.74701 40.2645,24.9483 l 14.8681,-71.31405 c -10.8361,-6.80127 -24.2763,-14.22976 -40.2364,-22.31066 -15.7642,-7.87649 -33.2645,-15.21538 -52.5006,-21.87666 -19.2643,-6.80128 -40.4886,-12.26134 -63.4488,-16.62379 -23.0723,-4.59486 -47.1525,-7.00009 -72.1848,-7.00009 -47.0406,0 -88.5931,8.20129 -124.6856,24.50029 -35.8964,16.285 -66.0807,38.50046 -90.581,66.50079 -24.2764,28.00033 -42.6446,60.36312 -55.1047,97.12476 -12.6001,36.95764 -18.8162,75.6877 -18.8162,115.92977 0,40.79649 6.3281,79.85416 19.2362,117.2598 13.1322,37.29925 32.1724,70.11284 57.3167,98.41837 25.0603,28.55754 56.2247,50.9914 93.6331,67.3968 37.2965,16.299 79.8289,24.50029 127.7375,24.50029 z m -3.92,-70.44884 c -55.4687,0 -98.4491,-14.44817 -129.0816,-43.31371 -30.4084,-28.86274 -51.0725,-65.07837 -62.1047,-108.50129 h 343.4241 c 0.56,4.06005 0.868,7.64689 0.868,10.94813 0,3.50004 0,7.41728 0,11.81334 0,20.66145 -4.256,39.14727 -12.6841,55.55266 -8.2041,16.29619 -19.4603,29.84835 -33.6844,40.68728 -14.3362,11.06014 -30.6324,19.26143 -49.0007,24.50029 -18.3682,5.46007 -37.6323,8.3133 -57.7366,8.3133 z" /><text
         xml:space="preserve"
         id="text24"
         style="font-style:normal;font-weight:normal;font-size:300px;line-height:1.25;font-family:sans-serif;letter-spacing:0px;word-spacing:0px;white-space:pre;shape-inside:url(#rect26);fill:#000000;fill-opacity:1;stroke:none;" /><text
         xml:space="preserve"
         id="text42"
         style="font-style:normal;font-weight:normal;font-size:300px;line-height:1.25;font-family:sans-serif;letter-spacing:0px;word-spacing:0px;white-space:pre;shape-inside:url(#rect44);fill:#000000;fill-opacity:1;stroke:none;" /><text
         xml:space="preserve"
         style="font-style:normal;font-weight:normal;font-size:1120.01px;line-height:1.25;font-family:sans-serif;letter-spacing:0px;word-spacing:0px;fill:#e65c23;fill-opacity:1;stroke:none;stroke-width:21.0003"
         x="4225.1558"
         y="-173.86961"
         id="text50"
         transform="scale(1,-1)"><tspan
           sodipodi:role="line"
           id="tspan48"
           x="4225.1558"
           y="-173.86961"
           style="font-size:1120.01px;fill:#e65c23;fill-opacity:1;stroke-width:21.0003">Office</tspan></text></g></g></svg>
