<?xml version="1.0" encoding="UTF-8" standalone="no"?>
<svg
   xmlns:dc="http://purl.org/dc/elements/1.1/"
   xmlns:cc="http://creativecommons.org/ns#"
   xmlns:rdf="http://www.w3.org/1999/02/22-rdf-syntax-ns#"
   xmlns:svg="http://www.w3.org/2000/svg"
   xmlns="http://www.w3.org/2000/svg"
   viewBox="0 0 250.66667 209.33333"
   height="209.33333"
   width="250.66667"
   xml:space="preserve"
   id="svg2"
   version="1.1"><metadata
     id="metadata8"><rdf:RDF><cc:Work
         rdf:about=""><dc:format>image/svg+xml</dc:format><dc:type
           rdf:resource="http://purl.org/dc/dcmitype/StillImage" /></cc:Work></rdf:RDF></metadata><defs
     id="defs6" /><g
     transform="matrix(1.3333333,0,0,-1.3333333,0,209.33333)"
     id="g10"><g
       transform="scale(0.1)"
       id="g12"><path
         id="path14"
         style="fill:#e65c23;fill-opacity:1;fill-rule:evenodd;stroke:none"
         d="M 647.461,17.7695 C 698.281,10.7383 760.16,7.46094 833.121,7.96875 906.051,8.44141 985.738,15 1072.3,27.5391 c 87,12.1093 176.84,32.2617 269.42,60.3906 92.54,27.6913 184.1,65.4293 274.65,113.1993 91.09,47.781 176.79,107.703 257.34,179.609 L 1708.44,562.621 C 1660.12,501.719 1602.27,445.352 1534.88,393.551 1467.97,341.719 1395.78,295.199 1318.32,253.949 1240.86,212.73 1161.84,177.77 1081.37,149.059 1000.86,120.859 923.121,100 848.199,86.4492 773.238,72.3398 705.078,66.8398 643.711,69.8398 l 3.75,-52.0703 M 0,527.891 c 72.9688,58.359 135.352,123.519 187.191,195.429 51.289,71.91 94.059,146.129 128.278,222.621 33.711,75.969 60.582,149.679 80.703,221.049 20.156,71.45 34.957,135.59 44.566,192.42 9.532,56.92 15.551,102.19 18.09,135.82 3.012,33.75 4.262,50.82 3.793,51.37 l 794.569,23.4 c 23.63,-52.34 33.71,-113.2 30.15,-182.62 -3,-69.92 -16.56,-144.41 -40.74,-223.4 -24.14,-78.98 -55.82,-159.21 -95.08,-240.699 -39.22,-81.48 -83,-160.23 -131.29,-236.172 C 972.422,611.129 922.891,541.68 871.559,478.832 820.82,415.941 771.449,363.359 723.711,321.129 675.352,278.359 631.879,249.691 593.121,235.078 L 608.98,17.7695 32.5,387.539 0,527.891" /><path
         id="path16"
         style="fill:#faae17;fill-opacity:1;fill-rule:evenodd;stroke:none"
         d="m 641.41,96.9883 c 60.891,-0.9688 130.039,7.0317 207.5,24.1837 77.539,17.109 158.79,44.258 243.79,81.488 84.49,36.719 168.47,84.219 252.03,142.57 83.51,57.93 161.68,127.071 234.68,207.54 72.47,80 135.59,172.07 189.42,276.179 L 1576.41,1007.81 C 1538.12,893.629 1488.87,787.461 1428.48,689.379 1367.58,591.801 1296.91,504.73 1216.45,428.238 1135.98,351.801 1047.19,288.672 950.078,238.828 853.012,189.57 749.102,156.371 638.398,139.262 l 3.012,-42.2737" /><path
         id="path18"
         style="fill:#00b3e6;fill-opacity:1;fill-rule:evenodd;stroke:none"
         d="m 636.91,169.449 c 63.871,7.031 132.07,27.66 204.461,61.84 72.457,34.262 145.149,81.52 218.119,141.91 73.4,59.852 143.4,133.051 209.77,219.61 66.91,86.019 127.03,184.57 180.35,295.742 53.32,111.719 96.33,235.709 129.02,372.069 l -203.75,164.46 c 3.56,-62.89 -3.51,-132.03 -21.09,-207.5 -17.62,-75.98 -43.56,-154.46 -77.74,-235.471 -34.72,-80.468 -75.7,-160.16 -123,-239.14 C 1105.23,663.949 1053.2,589.488 996.84,519.57 940,450.121 880.859,388.75 819.488,335.469 758.121,282.66 696.02,241.602 633.16,212.422 l 3.75,-42.973" /><path
         id="path20"
         style="fill:#faae17;fill-opacity:1;fill-rule:evenodd;stroke:none"
         d="m 1576.41,1007.81 192.42,-178.861 c -12.11,-23.168 -24.69,-45.789 -37.74,-67.898 -98.63,-37.731 -203.75,-67.93 -315.47,-90.539 66.45,103.078 119.97,215.578 160.79,337.298" /><path
         id="path22"
         style="fill:#42c7f5;fill-opacity:1;fill-rule:evenodd;stroke:none"
         d="m 1313.01,652.379 c 57.34,81.492 108.71,173.051 153.98,274.691 45.74,101.09 83.01,212.27 111.64,333.55 l -204.49,164.46 c 3.01,-54.81 -2.03,-114.69 -15.12,-179.57 -12.54,-64.89 -32.18,-132.35 -58.82,-202.27 -26.65,-69.92 -58.87,-139.799 -96.61,-209.72 -37.22,-70.469 -78.71,-138.36 -124.53,-203.75 80,3.511 158.01,11.089 233.95,22.609" /><path
         id="path24"
         style="fill:#87c23f;fill-opacity:1;fill-rule:evenodd;stroke:none"
         d="m 463.359,1546.6 c 0,-0.55 -1.289,-16.64 -3.75,-48.28 -2.539,-31.21 -8.089,-73.75 -16.64,-127.58 -9.059,-53.83 -22.617,-114.41 -40.739,-181.79 -18.089,-67.93 -42.5,-138.64 -73.21,-212.071 C 298.359,903.441 259.609,831.211 212.809,760.27 324.02,717.539 443.52,684.57 571.25,661.41 c 127.77,-22.621 261.09,-34.18 399.922,-34.648 3.558,0 6.797,0 9.808,0 52.81,78.468 101.64,160.699 146.44,246.718 44.26,86.52 80.7,172.54 109.42,258.08 28.12,85.47 44.96,166.02 50.5,241.49 5.08,75.47 -4.76,141.05 -29.41,196.95 l -794.571,-23.4" /></g></g></svg>